<svg width="14" height="13" viewBox="0 0 14 13" fill="none" xmlns="http://www.w3.org/2000/svg">
<path d="M8.45835 9.70832H11.9584M10.2084 11.4583V7.95832M12.8334 4.32416V1.96749C12.8334 1.03999 12.46 0.666656 11.5325 0.666656H9.17585C8.24835 0.666656 7.87502 1.03999 7.87502 1.96749V4.32416C7.87502 5.25166 8.24835 5.62499 9.17585 5.62499H11.5325C12.46 5.62499 12.8334 5.25166 12.8334 4.32416ZM6.12502 4.46999V1.82166C6.12502 0.999157 5.75169 0.666656 4.82419 0.666656H2.46752C1.54002 0.666656 1.16669 0.999157 1.16669 1.82166V4.46416C1.16669 5.29249 1.54002 5.61916 2.46752 5.61916H4.82419C5.75169 5.62499 6.12502 5.29249 6.12502 4.46999ZM6.12502 11.0325V8.67582C6.12502 7.74832 5.75169 7.37499 4.82419 7.37499H2.46752C1.54002 7.37499 1.16669 7.74832 1.16669 8.67582V11.0325C1.16669 11.96 1.54002 12.3333 2.46752 12.3333H4.82419C5.75169 12.3333 6.12502 11.96 6.12502 11.0325Z" stroke="white" stroke-linecap="round" stroke-linejoin="round"/>
</svg>
