<svg width="12" height="12" viewBox="0 0 12 12" fill="none" xmlns="http://www.w3.org/2000/svg">
<path d="M2.55725 5H3.58012C4.60298 5 5.11441 4.5 5.11441 3.5V2.5C5.11441 1.5 4.60298 1 3.58012 1H2.55725C1.53438 1 1.02295 1.5 1.02295 2.5V3.5C1.02295 4.5 1.53438 5 2.55725 5Z" stroke="white" stroke-miterlimit="10" stroke-linecap="round" stroke-linejoin="round"/>
<path d="M8.69445 5H9.71731C10.7402 5 11.2516 4.5 11.2516 3.5V2.5C11.2516 1.5 10.7402 1 9.71731 1H8.69445C7.67158 1 7.16015 1.5 7.16015 2.5V3.5C7.16015 4.5 7.67158 5 8.69445 5Z" stroke="white" stroke-miterlimit="10" stroke-linecap="round" stroke-linejoin="round"/>
<path d="M8.69445 11H9.71731C10.7402 11 11.2516 10.5 11.2516 9.5V8.5C11.2516 7.5 10.7402 7 9.71731 7H8.69445C7.67158 7 7.16015 7.5 7.16015 8.5V9.5C7.16015 10.5 7.67158 11 8.69445 11Z" stroke="white" stroke-miterlimit="10" stroke-linecap="round" stroke-linejoin="round"/>
<path d="M2.55725 11H3.58012C4.60298 11 5.11441 10.5 5.11441 9.5V8.5C5.11441 7.5 4.60298 7 3.58012 7H2.55725C1.53438 7 1.02295 7.5 1.02295 8.5V9.5C1.02295 10.5 1.53438 11 2.55725 11Z" stroke="white" stroke-miterlimit="10" stroke-linecap="round" stroke-linejoin="round"/>
</svg>
