<svg width="25" height="25" viewBox="0 0 25 25" fill="none" xmlns="http://www.w3.org/2000/svg">
<path d="M9.125 13.625C8.3825 13.9963 7.76375 14.5475 7.3025 15.2338C7.04375 15.6275 7.04375 16.1225 7.3025 16.5162C7.76375 17.2025 8.3825 17.7537 9.125 18.125M16.1113 13.625C16.8538 13.9963 17.4725 14.5475 17.9337 15.2338C18.1925 15.6275 18.1925 16.1225 17.9337 16.5162C17.4725 17.2025 16.8538 17.7537 16.1113 18.125M1.50875 8.01125L23.1313 8M9.125 23.75H15.875C21.5 23.75 23.75 21.5 23.75 15.875V9.125C23.75 3.5 21.5 1.25 15.875 1.25H9.125C3.5 1.25 1.25 3.5 1.25 9.125V15.875C1.25 21.5 3.5 23.75 9.125 23.75Z" stroke="#E4ECFF" stroke-width="1.5" stroke-linecap="round" stroke-linejoin="round"/>
</svg>
