<svg width="22" height="22" viewBox="0 0 22 22" fill="none" xmlns="http://www.w3.org/2000/svg">
<path fill-rule="evenodd" clip-rule="evenodd" d="M6 11C6 8.23858 8.23858 6 11 6C13.7614 6 16 8.23858 16 11C16 13.7614 13.7614 16 11 16C8.23858 16 6 13.7614 6 11ZM11 8C9.34315 8 8 9.34315 8 11C8 12.6569 9.34315 14 11 14C12.6569 14 14 12.6569 14 11C14 9.34315 12.6569 8 11 8Z" fill="white"/>
<path fill-rule="evenodd" clip-rule="evenodd" d="M8.27936 0H13.7209L14.5395 2.45577L16.8553 1.29806L20.703 5.14575L19.5454 7.46106L22.0002 8.27952V13.721L19.5444 14.5395L20.7018 16.8544L16.854 20.7021L14.5392 19.5446L13.7208 22H8.27926L7.46083 19.5447L5.14633 20.7018L1.29863 16.8541L2.45598 14.5394L0 13.721V8.27935L2.45604 7.46074L1.29851 5.14568L5.14629 1.2979L7.46088 2.45543L8.27936 0ZM9.72088 2L8.62896 5.27574L5.54111 3.73151L3.73203 5.54058L5.2762 8.62893L2 9.7209V12.2793L5.27621 13.371L3.73215 16.4592L5.5413 18.2683L8.62901 16.7247L9.72077 20H12.2793L13.3711 16.7244L16.4592 18.2686L18.2683 16.4595L16.7241 13.3712L20.0002 12.2794V9.72094L16.7253 8.62906L18.2695 5.54066L16.4604 3.7315L13.3713 5.27573L12.2794 2H9.72088Z" fill="white"/>
</svg>
